<?xml version="1.0" encoding="UTF-8"?>
<svg version="1.1" xmlns="http://www.w3.org/2000/svg" width="415" height="412">
<path d="M0 0 C0.9472998 0.18804199 1.89459961 0.37608398 2.87060547 0.56982422 C35.22879946 7.25856782 65.74667892 21.65222257 91 43 C91.55075195 43.46196777 92.10150391 43.92393555 92.66894531 44.39990234 C103.20810036 53.2508567 112.41986237 62.1870606 121 73 C122.22783203 74.51980469 122.22783203 74.51980469 123.48046875 76.0703125 C129.77272089 83.9548747 135.0391972 92.22599194 140 101 C140.34272949 101.59506348 140.68545898 102.19012695 141.03857422 102.80322266 C154.32848132 125.97944648 162.73726628 152.34632783 165 179 C165.10828125 179.98097656 165.2165625 180.96195313 165.328125 181.97265625 C170.74221086 237.1820844 154.737228 290.96079298 120 334 C117.11020714 337.44634556 114.1020848 340.74374532 111 344 C110.46246094 344.56477051 109.92492187 345.12954102 109.37109375 345.71142578 C81.01801012 375.30300949 45.83082017 395.34008191 6 405 C4.74413086 405.31759277 4.74413086 405.31759277 3.46289062 405.64160156 C-11.16434278 409.18878999 -25.77997339 409.39122054 -40.75 409.4375 C-42.17542114 409.44689606 -42.17542114 409.44689606 -43.62963867 409.45648193 C-60.90204896 409.52839442 -77.72651816 407.85344138 -94.4375 403.3125 C-95.38794189 403.05758789 -96.33838379 402.80267578 -97.31762695 402.54003906 C-136.48139097 391.68121654 -175.34021836 369.08933969 -201 337 C-201.80308594 336.03449219 -202.60617188 335.06898438 -203.43359375 334.07421875 C-223.06098874 310.15299842 -237.0487782 282.18514259 -244.1875 252.125 C-244.56334229 250.54730835 -244.56334229 250.54730835 -244.94677734 248.93774414 C-248.4414851 233.52861467 -249.3784585 218.54766791 -249.3125 202.8125 C-249.31067719 201.90891754 -249.30885437 201.00533508 -249.30697632 200.07437134 C-249.26203423 186.84104764 -248.85816303 173.96863344 -246 161 C-245.83371094 160.20045898 -245.66742188 159.40091797 -245.49609375 158.57714844 C-239.86560484 131.97830173 -229.21612872 105.9413497 -213 84 C-212.23300781 82.95070313 -211.46601563 81.90140625 -210.67578125 80.8203125 C-205.35613486 73.66335428 -199.62131355 66.96963774 -193.45947266 60.52685547 C-192.47491573 59.49684225 -191.4955186 58.46187541 -190.52099609 57.42236328 C-173.35087825 39.15238023 -152.46292829 25.47406766 -129.83349609 14.86132812 C-128.13766162 14.0646698 -126.45302807 13.24428457 -124.76953125 12.421875 C-87.4595413 -4.84706066 -40.13735103 -8.08060294 0 0 Z M-79 14 C-80.29139893 14.25740967 -80.29139893 14.25740967 -81.60888672 14.52001953 C-120.15146091 22.41190252 -152.72357522 41.01420042 -181 68 C-181.65355469 68.60070312 -182.30710938 69.20140625 -182.98046875 69.8203125 C-215.94339259 100.98241152 -234.61549199 150.3042163 -236.06640625 195.04785156 C-236.80473707 223.28900558 -232.75780961 253.48438078 -220 279 C-215.28538431 277.38902128 -211.48164366 274.80850298 -207.375 272.0625 C-190.95204218 261.30128127 -174.00209801 251.87676194 -156 244 C-155.27748047 243.68208496 -154.55496094 243.36416992 -153.81054688 243.03662109 C-139.15982163 236.84795267 -118.82994188 235.98734222 -104 242 C-93.9424862 246.21978297 -84.39731305 251.22668131 -75 256.75 C-55.89903903 267.97116609 -37.90441286 270.45007479 -16.17651367 272.72680664 C16.97052556 276.23316811 16.97052556 276.23316811 25.67578125 285.8515625 C28.04368584 289.69329562 27.70776754 293.65032183 27 298 C24.03080693 303.26792319 20.89549948 304.6314273 15.43334961 306.34643555 C11.7252008 307.34239364 8.06873367 307.84041535 4.25 308.1875 C2.98675903 308.30266968 2.98675903 308.30266968 1.69799805 308.42016602 C-19.86008344 310.15906263 -40.00179411 309.26372158 -61 304 C-62.24450928 303.68844971 -62.24450928 303.68844971 -63.51416016 303.37060547 C-66.91817473 302.51093436 -70.3113589 301.63591488 -73.6953125 300.69921875 C-77.26605409 299.94370723 -80.36176771 299.70163823 -84 300 C-86.00864359 302.3726974 -86.00864359 302.3726974 -87 305 C-85.35629595 307.77933478 -84.4477205 308.85502656 -81.32714844 309.86547852 C-80.2652832 310.03490967 -79.20341797 310.20434082 -78.109375 310.37890625 C-76.33046875 310.67764648 -76.33046875 310.67764648 -74.515625 310.98242188 C-73.27296875 311.17384766 -72.0303125 311.36527344 -70.75 311.5625 C-68.3278455 311.95792716 -65.90597057 312.3550705 -63.484375 312.75390625 C-62.24937256 312.95040771 -61.01437012 313.14690918 -59.74194336 313.34936523 C-56.03939457 313.99315022 -52.40339194 314.80468446 -48.73828125 315.6328125 C-39.96548872 317.41277463 -31.36028218 317.41900743 -22.4375 317.3125 C-21.60804871 317.30690063 -20.77859741 317.30130127 -19.92401123 317.29553223 C-9.97885454 317.22802954 -0.04199517 317.05322657 9.875 316.25 C10.70974854 316.18852783 11.54449707 316.12705566 12.40454102 316.0637207 C21.37200089 315.1599506 28.00457139 310.57937786 35.1875 305.4375 C35.92363525 304.91373779 36.65977051 304.38997559 37.41821289 303.8503418 C47.08936948 296.8822059 55.93826966 289.04290053 64.75390625 281.03125 C66.73097869 279.24328884 68.73166285 277.4909758 70.75 275.75 C73.25889842 273.57360619 75.70578076 271.34562509 78.1171875 269.0625 C84.06866001 263.43341298 90.07152002 257.95910793 96.5 252.875 C97.06283691 252.42608398 97.62567383 251.97716797 98.20556641 251.51464844 C104.23317228 246.83269884 108.97153882 244.41839629 116.58984375 244.63671875 C120.30429862 245.19659606 122.18382605 246.544874 125 249 C126.61380195 252.22760391 126.39935648 254.40579169 126 258 C122.27100974 266.31597828 114.65513697 272.92450958 108.46240234 279.44482422 C106.71913534 281.29868245 105.03665704 283.19779971 103.375 285.125 C99.18610308 289.97259324 94.83325271 294.66950537 90.49121094 299.37939453 C88.98251171 301.01900578 87.47910665 302.66334177 85.9765625 304.30859375 C65.93332813 326.22081139 47.98110707 339.12651435 19.4375 347.375 C17.53334865 347.9357362 15.62962469 348.49792567 13.72631836 349.06152344 C10.86735891 349.90781226 8.0081527 350.75312317 5.14741516 351.59338379 C-3.24213868 354.05807527 -11.5939526 356.63443062 -19.9375 359.25 C-22.21718741 359.96437352 -24.49710964 360.67799844 -26.77734375 361.390625 C-27.69765381 361.67969727 -28.61796387 361.96876953 -29.56616211 362.26660156 C-47.70269836 367.73175904 -65.44253775 358.62312399 -82.18164062 352.09570312 C-129.3440606 332.42884857 -129.3440606 332.42884857 -179 335 C-179.66 335.33 -180.32 335.66 -181 336 C-179.40705812 340.08372372 -176.48488417 342.67774782 -173.3125 345.5625 C-172.44963379 346.34923096 -172.44963379 346.34923096 -171.56933594 347.15185547 C-154.80836426 362.15919133 -135.47254614 372.91272063 -115 382 C-113.92878906 382.48210937 -112.85757813 382.96421875 -111.75390625 383.4609375 C-65.53983208 402.73214505 -11.59037546 399.95351013 34.125 381.3125 C54.51777579 372.69349437 72.75792892 360.98040595 88.96484375 345.8828125 C90.65909563 344.31538562 92.37699061 342.86510793 94.1875 341.4375 C97.85874127 338.25575756 100.86720732 334.70293694 104 331 C104.83789062 330.04996094 105.67578125 329.09992188 106.5390625 328.12109375 C140.69135704 289.17185434 154.5649795 239.15467585 152 188 C151.01141104 175.09673041 148.70896395 162.3992686 145 150 C144.76297363 149.20271484 144.52594727 148.40542969 144.28173828 147.58398438 C135.36896059 118.15447362 120.63942271 92.6876538 99.41210938 70.47949219 C98.4756544 69.4983516 97.54457769 68.51204753 96.61914062 67.52050781 C70.44286734 39.51669499 33.49332844 21.03763541 -4 14 C-5.16861572 13.77570312 -5.16861572 13.77570312 -6.36083984 13.546875 C-30.00770597 9.19716405 -55.43948565 9.19985545 -79 14 Z " fill="#598981" transform="translate(249,3)"/>
<path d="M0 0 C0.78137329 0.34766922 1.56274658 0.69533844 2.36779785 1.05354309 C4.9429594 2.20306052 7.50829452 3.37299558 10.07421875 4.54296875 C11.89670783 5.36071096 13.71988267 6.17692635 15.54370117 6.99169922 C19.36161067 8.69919866 23.17608222 10.41406811 26.98828125 12.13427734 C35.26510142 15.86375569 43.57706432 19.51328001 51.88586426 23.17077637 C56.34172106 25.13436399 60.79381449 27.1064423 65.24609375 29.078125 C71.42053412 31.81220114 77.59757589 34.54020885 83.77864075 37.25927734 C87.16200258 38.74841541 90.54373625 40.24122494 93.92514038 41.73480225 C95.51200417 42.43472357 97.09957987 43.13303327 98.68789673 43.82965088 C100.86153883 44.78323635 103.03259901 45.74247248 105.203125 46.703125 C106.16384918 47.12204262 106.16384918 47.12204262 107.14398193 47.54942322 C109.7847124 48.72429899 111.69771153 49.66646153 113.76171875 51.73046875 C114.4953432 57.41605827 114.4953432 57.41605827 113.76171875 59.73046875 C112.77389404 60.21741211 111.78606934 60.70435547 110.76831055 61.20605469 C107.6484177 63.33474144 107.6484177 63.33474144 107.19363403 65.8631897 C106.98220743 68.65485922 106.95672357 71.39191307 107 74.19140625 C106.99663132 75.21473053 106.99326263 76.23805481 106.98979187 77.29238892 C106.99009072 79.45604478 107.00533988 81.61974272 107.03442383 83.78320312 C107.07400065 87.08726083 107.05516421 90.38728514 107.02929688 93.69140625 C107.03685867 95.79558844 107.04781483 97.89976172 107.0625 100.00390625 C107.0555159 100.98845795 107.0485318 101.97300964 107.04133606 102.98739624 C107.17286172 109.41258701 108.18280543 112.20787717 112.76171875 116.73046875 C114.61924694 121.34614485 115.19898488 125.34150574 113.69921875 130.10546875 C111.08532072 133.64687898 109.11799212 136.27206648 104.61328125 137.1484375 C100.18023704 137.42090035 98.33597979 137.18509207 94.76171875 134.35546875 C90.98604103 129.39989175 91.10908338 124.82745705 91.76171875 118.73046875 C92.95380347 115.9236511 94.59594723 113.89624027 96.76171875 111.73046875 C96.85450205 110.3488676 96.87918918 108.96258837 96.87524414 107.57788086 C96.87516861 106.6970433 96.87509308 105.81620575 96.87501526 104.90867615 C96.86985397 103.95139114 96.86469269 102.99410614 96.859375 102.0078125 C96.85796005 101.03260147 96.8565451 100.05739044 96.85508728 99.05262756 C96.84947008 95.92437732 96.83691468 92.79619752 96.82421875 89.66796875 C96.81920597 87.55273541 96.81464268 85.43750094 96.81054688 83.32226562 C96.79949506 78.12497579 96.78274021 72.9277273 96.76171875 67.73046875 C95.18596069 68.46197144 95.18596069 68.46197144 93.57836914 69.20825195 C75.55493405 77.5708017 57.53635213 85.92693341 39.3203125 93.86328125 C29.93627035 97.95241694 20.59235372 102.13263527 11.24160767 106.29718018 C9.70289681 106.98241293 8.16410602 107.66746621 6.62522888 108.35232544 C5.21842709 108.97841166 3.81180675 109.60490582 2.40541077 110.23190308 C1.13564012 110.79697093 -0.13617275 111.35747735 -1.41021729 111.9128418 C-2.63935794 112.462592 -3.85632205 113.04032778 -5.05999756 113.64379883 C-9.25085361 115.66973068 -11.77249161 116.0141648 -16.23828125 114.73046875 C-18.23478394 113.96831835 -20.2048567 113.13456992 -22.1484375 112.24609375 C-23.85664673 111.47217285 -23.85664673 111.47217285 -25.59936523 110.68261719 C-26.83319116 110.11527915 -28.06699588 109.54789499 -29.30078125 108.98046875 C-30.60130022 108.38889235 -31.90216986 107.79808632 -33.20336914 107.20800781 C-35.89769842 105.98541982 -38.5905026 104.75956287 -41.28222656 103.53125 C-47.23358684 100.81835861 -53.20534464 98.15104425 -59.17578125 95.48046875 C-61.57299152 94.40641659 -63.97012525 93.33219485 -66.3671875 92.2578125 C-66.9844017 91.98126328 -67.60161591 91.70471405 -68.23753357 91.41978455 C-71.77317212 89.83558799 -75.30842095 88.25052671 -78.84326172 86.66455078 C-82.93918096 84.82687979 -87.03562409 82.99038119 -91.13244629 81.15472412 C-92.77914365 80.41677716 -94.42571061 79.67853915 -96.07214355 78.94000244 C-103.91584802 75.42242839 -111.76185123 71.91573475 -119.6640625 68.53125 C-120.74059082 68.07000732 -121.81711914 67.60876465 -122.92626953 67.13354492 C-124.85794287 66.31046907 -126.79232869 65.49371575 -128.72998047 64.68481445 C-129.56158691 64.3312085 -130.39319336 63.97760254 -131.25 63.61328125 C-131.95600342 63.31824707 -132.66200684 63.02321289 -133.3894043 62.71923828 C-135.59517331 61.53960478 -136.85616753 60.84722973 -138.23828125 58.73046875 C-138.36572266 55.29174805 -138.36572266 55.29174805 -137.23828125 51.73046875 C-134.79448552 49.97037512 -132.91224096 48.90581422 -130.19921875 47.75 C-129.48019379 47.41837357 -128.76116882 47.08674713 -128.02035522 46.74507141 C-125.77028067 45.71449742 -123.50597579 44.72155947 -121.23828125 43.73046875 C-119.89900106 43.12392605 -118.56074242 42.51512142 -117.22363281 41.90380859 C-113.84318545 40.36723446 -110.44835725 38.86576719 -107.04733276 37.37536621 C-103.15259381 35.66807444 -99.26402758 33.94681513 -95.375 32.2265625 C-94.55759842 31.86527252 -93.74019684 31.50398254 -92.89802551 31.13174438 C-84.03347774 27.2078848 -75.20355546 23.20821375 -66.37512207 19.20391846 C-63.69077484 17.98726445 -61.00526375 16.77321884 -58.31933594 15.56005859 C-47.56220152 10.70048955 -47.56220152 10.70048955 -36.83589172 5.77340698 C-34.92543728 4.88992523 -33.01229957 4.01259163 -31.09790039 3.13769531 C-28.8610351 2.11399994 -26.62923147 1.07912908 -24.40405273 0.03027344 C-23.42895752 -0.4128418 -22.4538623 -0.85595703 -21.44921875 -1.3125 C-20.62728027 -1.6943042 -19.8053418 -2.0761084 -18.95849609 -2.46948242 C-11.78486851 -4.57933502 -6.51442649 -3.02072901 0 0 Z " fill="#598A81" transform="translate(219.23828125,62.26953125)"/>
<path d="M0 0 C4.66893132 0.52975881 8.54276594 1.41802293 12.83984375 3.30859375 C14.52980469 4.04577637 14.52980469 4.04577637 16.25390625 4.79785156 C17.48183076 5.34426639 18.70969351 5.89082004 19.9375 6.4375 C21.22888831 7.00421546 22.52056291 7.57027892 23.8125 8.13574219 C31.78974614 11.63916764 39.72716681 15.22975654 47.66015625 18.83203125 C48.55999741 19.23985336 49.45983856 19.64767548 50.38694763 20.06785583 C54.85238773 22.09182304 59.31413813 24.12315153 63.76928711 26.16967773 C65.41899248 26.92066413 67.06880831 27.67140795 68.71875 28.421875 C69.4675795 28.76922195 70.216409 29.11656891 70.9879303 29.47444153 C78.18262825 32.77690641 78.18262825 32.77690641 85.8762207 32.11401367 C86.88257568 31.63681885 87.88893066 31.15962402 88.92578125 30.66796875 C90.0955249 30.12487061 91.26526855 29.58177246 92.47045898 29.0222168 C93.09443573 28.72407074 93.71841248 28.42592468 94.36129761 28.1187439 C97.04570553 26.83756543 99.7468234 25.59354813 102.44721985 24.34651184 C103.91438896 23.66851962 105.38074888 22.988774 106.84635925 22.30741882 C115.58959514 18.24513767 124.385905 14.30387097 133.20175171 10.40200806 C135.90133833 9.20355361 138.59478099 7.99197891 141.28833008 6.7800293 C142.97182573 6.03357011 144.65564878 5.28784875 146.33984375 4.54296875 C147.09705719 4.19878906 147.85427063 3.85460937 148.63442993 3.5 C153.47854916 1.38051606 157.72373861 0.4249463 163 0 C163.04629419 7.3973076 163.08185426 14.79458407 163.10362434 22.19200706 C163.1140717 25.62675459 163.12824805 29.06140317 163.15087891 32.49609375 C163.17672063 36.44269638 163.18646493 40.38925863 163.1953125 44.3359375 C163.20563507 45.57242035 163.21595764 46.8089032 163.22659302 48.08285522 C163.22674408 49.22388702 163.22689514 50.36491882 163.22705078 51.54052734 C163.231492 52.548685 163.23593323 53.55684265 163.24050903 54.59555054 C163 57 163 57 161 59 C159.14331055 59.43896484 159.14331055 59.43896484 156.88671875 59.7109375 C155.64317627 59.87275513 155.64317627 59.87275513 154.37451172 60.0378418 C153.48779785 60.149104 152.60108398 60.26036621 151.6875 60.375 C129.4685226 63.48534206 110.40744571 72.93530714 91.80078125 85.08984375 C90.35251953 86.03537109 90.35251953 86.03537109 88.875 87 C88.04742187 87.556875 87.21984375 88.11375 86.3671875 88.6875 C82.13883013 91.03193577 82.13883013 91.03193577 79 91 C76.14908081 89.48881347 73.67318646 87.53130386 71.125 85.5625 C60.22526534 77.53984673 49.15214798 71.71961259 36.625 66.625 C35.80475342 66.29081055 34.98450684 65.95662109 34.1394043 65.61230469 C25.89555265 62.37248684 17.78413497 60.82830734 9 59.9375 C1.1320688 59.1320688 1.1320688 59.1320688 0 58 C-0.09376053 56.18944975 -0.1174411 54.37522799 -0.11352539 52.56225586 C-0.11344986 51.40112778 -0.11337433 50.23999969 -0.11329651 49.04368591 C-0.10813522 47.780168 -0.10297394 46.51665009 -0.09765625 45.21484375 C-0.0962413 43.92888809 -0.09482635 42.64293243 -0.09336853 41.31800842 C-0.08954418 37.89356557 -0.07971462 34.46916491 -0.06866455 31.04473877 C-0.05844864 27.55261811 -0.05387053 24.06049066 -0.04882812 20.56835938 C-0.03809227 13.71222222 -0.02101684 6.85611313 0 0 Z " fill="#598981" transform="translate(126,155)"/>
<path d="M0 0 C0.83443634 0.00215515 1.66887268 0.0043103 2.52859497 0.00653076 C15.68620581 0.06093549 28.52582998 0.56702933 41.4375 3.3125 C42.34886719 3.50585938 43.26023438 3.69921875 44.19921875 3.8984375 C81.04594083 12.04191496 112.15595602 29.47574521 139.4375 55.3125 C140.37980469 56.20066406 141.32210938 57.08882812 142.29296875 58.00390625 C149.09153004 64.59151077 154.95159178 71.62876735 160.4375 79.3125 C161.06205078 80.18648437 161.06205078 80.18648437 161.69921875 81.078125 C179.88491835 106.81788443 190.99377126 136.14873801 195.4375 167.3125 C195.623125 168.60671875 195.80875 169.9009375 196 171.234375 C201.44085839 222.7848562 188.18795872 275.10638285 155.67578125 315.8125 C144.23833414 329.73660587 131.33333704 343.10346306 116.4375 353.3125 C115.46345215 353.98055664 115.46345215 353.98055664 114.46972656 354.66210938 C71.71598153 383.67143567 18.68236881 396.89936687 -32.671875 387.34765625 C-34.30365292 387.01010482 -35.93380471 386.66462468 -37.5625 386.3125 C-38.98079102 386.01448486 -38.98079102 386.01448486 -40.42773438 385.71044922 C-72.7463518 378.74702858 -101.31945508 364.38189587 -126.94824219 343.61962891 C-128.06200937 342.71776722 -129.18294435 341.82471074 -130.30957031 340.93896484 C-131.76441093 339.77517758 -133.16852846 338.54854425 -134.5625 337.3125 C-134.5625 336.6525 -134.5625 335.9925 -134.5625 335.3125 C-135.5525 334.9825 -136.5425 334.6525 -137.5625 334.3125 C-139.8125 332 -139.8125 332 -141.5625 329.3125 C-141.421875 327.24609375 -141.421875 327.24609375 -140.5625 325.3125 C-138.8125 324.3359375 -138.8125 324.3359375 -136.5625 323.6875 C-135.840625 323.46835937 -135.11875 323.24921875 -134.375 323.0234375 C-132.9828125 322.67152344 -132.9828125 322.67152344 -131.5625 322.3125 C-130.58144287 322.05871582 -130.58144287 322.05871582 -129.58056641 321.79980469 C-94.61726878 313.29832377 -56.03885319 333.62403403 -24.37080383 346.63607788 C-12.49621163 351.46771166 -1.15430022 355.32781177 11.51953125 351.3671875 C13.02673451 350.90422841 14.53406949 350.44169805 16.04150391 349.97949219 C16.88731018 349.71680542 17.73311646 349.45411865 18.60455322 349.18347168 C22.97690981 347.83921813 27.36491974 346.54839637 31.75094604 345.24957275 C36.23216977 343.9188748 40.70896577 342.57372495 45.18456841 341.2242775 C48.49024453 340.22802061 51.79720946 339.23661469 55.10766602 338.25634766 C88.64034639 328.31853246 109.80829627 313.85274258 132.76000977 287.23510742 C135.56864732 284.01606787 138.50788419 280.92108251 141.4375 277.8125 C146.20210623 272.72742137 150.95021717 267.64643997 155.4375 262.3125 C156.2109375 261.3946875 156.984375 260.476875 157.78125 259.53125 C164.0079221 252.97914785 164.0079221 252.97914785 166.3125 244.75 C165.20358454 241.66087836 164.33757484 240.83885518 161.4375 239.3125 C156.94806053 237.87587937 154.01576398 238.17921939 149.8125 240.0625 C138.52410582 246.27707598 129.2409892 256.26348921 119.9296875 265.03125 C115.4994139 269.20203954 110.99978777 273.28654224 106.4375 277.3125 C105.94523926 277.75239258 105.45297852 278.19228516 104.94580078 278.64550781 C95.28952946 287.2544292 85.10134312 294.99079431 74.4375 302.3125 C73.7887793 302.78059082 73.14005859 303.24868164 72.47167969 303.73095703 C63.41255996 309.94065439 52.75945486 309.74033689 42.13330078 310.31787109 C39.94121638 310.43729753 37.74996289 310.56737391 35.55859375 310.69921875 C14.63578629 311.92586712 -4.60142098 309.99304406 -25.0703125 305.47265625 C-30.44990299 304.29650305 -35.78733614 303.50492505 -41.26953125 302.96484375 C-43.5625 302.3125 -43.5625 302.3125 -45.3984375 300.48046875 C-47.1578485 297.20371335 -46.41053765 294.83511793 -45.5625 291.3125 C-43.07627982 288.82627982 -42.27867846 289.00530729 -38.83984375 288.9765625 C-31.67454232 289.10966407 -25.02417294 290.87552337 -18.125 292.6875 C-5.74845951 295.87059353 6.16417656 298.70395396 19 298.625 C20.44137329 298.61871582 20.44137329 298.61871582 21.91186523 298.61230469 C29.97862078 298.49118417 37.97606032 297.88080392 46 297.0625 C47.14734619 296.95333252 48.29469238 296.84416504 49.47680664 296.73168945 C56.85826895 295.89307439 61.4742254 294.84931162 66.375 289 C67.85777428 285.24945329 67.60593593 283.1614654 66.4375 279.3125 C55.90355755 267.02290048 35.16925617 267.41665268 20.4375 265.75 C16.80571916 265.33379792 13.1748722 264.91231702 9.54541016 264.47633362 C7.3016882 264.20722185 5.05660165 263.94914228 2.81005859 263.70469666 C-8.06843704 262.4084643 -18.31041098 259.51667276 -27.875 254.125 C-28.93920166 253.54625122 -28.93920166 253.54625122 -30.02490234 252.95581055 C-33.60403115 250.99905638 -37.14616921 248.98198398 -40.67578125 246.9375 C-59.47807868 236.07364683 -78.59472357 228.53670581 -100.625 233.3125 C-124.64716064 240.49918518 -148.72591334 254.61999623 -169.02929688 269.06787109 C-169.81884766 269.62684082 -170.60839844 270.18581055 -171.421875 270.76171875 C-172.12280273 271.27436279 -172.82373047 271.78700684 -173.54589844 272.31518555 C-175.5625 273.3125 -175.5625 273.3125 -177.72583008 273.14575195 C-180.87691691 271.71618139 -181.3149932 268.93750408 -182.5 265.8125 C-182.75305908 265.14541016 -183.00611816 264.47832031 -183.2668457 263.79101562 C-201.76062291 213.91859484 -199.67341544 159.02656501 -177.75634766 110.64208984 C-170.38941258 94.88481726 -161.26983763 80.83275517 -149.7421875 67.81640625 C-147.47484946 65.31961494 -147.47484946 65.31961494 -145.5625 62.3125 C-144.9025 62.3125 -144.2425 62.3125 -143.5625 62.3125 C-143.29308594 61.71824219 -143.02367187 61.12398437 -142.74609375 60.51171875 C-134.68617686 45.53570156 -112.79754381 33.53449866 -98.5625 25.3125 C-97.95905762 24.95687988 -97.35561523 24.60125977 -96.73388672 24.23486328 C-67.44916494 7.13512241 -33.66835525 -0.15695812 0 0 Z M-36.5625 5.3125 C-37.85389893 5.56990967 -37.85389893 5.56990967 -39.17138672 5.83251953 C-77.71396091 13.72440252 -110.28607522 32.32670042 -138.5625 59.3125 C-139.21605469 59.91320312 -139.86960938 60.51390625 -140.54296875 61.1328125 C-173.50589259 92.29491152 -192.17799199 141.6167163 -193.62890625 186.36035156 C-194.36723707 214.60150558 -190.32030961 244.79688078 -177.5625 270.3125 C-172.84788431 268.70152128 -169.04414366 266.12100298 -164.9375 263.375 C-148.51454218 252.61378127 -131.56459801 243.18926194 -113.5625 235.3125 C-112.83998047 234.99458496 -112.11746094 234.67666992 -111.37304688 234.34912109 C-96.72232163 228.16045267 -76.39244188 227.29984222 -61.5625 233.3125 C-51.5049862 237.53228297 -41.95981305 242.53918131 -32.5625 248.0625 C-13.46153903 259.28366609 4.53308714 261.76257479 26.26098633 264.03930664 C59.40802556 267.54566811 59.40802556 267.54566811 68.11328125 277.1640625 C70.48118584 281.00579562 70.14526754 284.96282183 69.4375 289.3125 C66.46830693 294.58042319 63.33299948 295.9439273 57.87084961 297.65893555 C54.1627008 298.65489364 50.50623367 299.15291535 46.6875 299.5 C45.42425903 299.61516968 45.42425903 299.61516968 44.13549805 299.73266602 C22.57741656 301.47156263 2.43570589 300.57622158 -18.5625 295.3125 C-19.80700928 295.00094971 -19.80700928 295.00094971 -21.07666016 294.68310547 C-24.48067473 293.82343436 -27.8738589 292.94841488 -31.2578125 292.01171875 C-34.82855409 291.25620723 -37.92426771 291.01413823 -41.5625 291.3125 C-43.57114359 293.6851974 -43.57114359 293.6851974 -44.5625 296.3125 C-42.91879595 299.09183478 -42.0102205 300.16752656 -38.88964844 301.17797852 C-37.8277832 301.34740967 -36.76591797 301.51684082 -35.671875 301.69140625 C-33.89296875 301.99014648 -33.89296875 301.99014648 -32.078125 302.29492188 C-30.83546875 302.48634766 -29.5928125 302.67777344 -28.3125 302.875 C-25.8903455 303.27042716 -23.46847057 303.6675705 -21.046875 304.06640625 C-19.81187256 304.26290771 -18.57687012 304.45940918 -17.30444336 304.66186523 C-13.60189457 305.30565022 -9.96589194 306.11718446 -6.30078125 306.9453125 C2.47201128 308.72527463 11.07721782 308.73150743 20 308.625 C20.82945129 308.61940063 21.65890259 308.61380127 22.51348877 308.60803223 C32.45864546 308.54052954 42.39550483 308.36572657 52.3125 307.5625 C53.14724854 307.50102783 53.98199707 307.43955566 54.84204102 307.3762207 C63.80950089 306.4724506 70.44207139 301.89187786 77.625 296.75 C78.36113525 296.22623779 79.09727051 295.70247559 79.85571289 295.1628418 C89.52686948 288.1947059 98.37576966 280.35540053 107.19140625 272.34375 C109.16847869 270.55578884 111.16916285 268.8034758 113.1875 267.0625 C115.69639842 264.88610619 118.14328076 262.65812509 120.5546875 260.375 C126.50616001 254.74591298 132.50902002 249.27160793 138.9375 244.1875 C139.50033691 243.73858398 140.06317383 243.28966797 140.64306641 242.82714844 C146.67067228 238.14519884 151.40903882 235.73089629 159.02734375 235.94921875 C162.74179862 236.50909606 164.62132605 237.857374 167.4375 240.3125 C169.05130195 243.54010391 168.83685648 245.71829169 168.4375 249.3125 C164.70850974 257.62847828 157.09263697 264.23700958 150.89990234 270.75732422 C149.15663534 272.61118245 147.47415704 274.51029971 145.8125 276.4375 C141.62360308 281.28509324 137.27075271 285.98200537 132.92871094 290.69189453 C131.42001171 292.33150578 129.91660665 293.97584177 128.4140625 295.62109375 C108.37082813 317.53331139 90.41860707 330.43901435 61.875 338.6875 C59.97084865 339.2482362 58.06712469 339.81042567 56.16381836 340.37402344 C53.30485891 341.22031226 50.4456527 342.06562317 47.58491516 342.90588379 C39.19536132 345.37057527 30.8435474 347.94693062 22.5 350.5625 C20.22031259 351.27687352 17.94039036 351.99049844 15.66015625 352.703125 C14.73984619 352.99219727 13.81953613 353.28126953 12.87133789 353.57910156 C-5.26519836 359.04425904 -23.00503775 349.93562399 -39.74414062 343.40820312 C-86.9065606 323.74134857 -86.9065606 323.74134857 -136.5625 326.3125 C-137.2225 326.6425 -137.8825 326.9725 -138.5625 327.3125 C-136.96955812 331.39622372 -134.04738417 333.99024782 -130.875 336.875 C-130.01213379 337.66173096 -130.01213379 337.66173096 -129.13183594 338.46435547 C-112.37086426 353.47169133 -93.03504614 364.22522063 -72.5625 373.3125 C-71.49128906 373.79460937 -70.42007813 374.27671875 -69.31640625 374.7734375 C-23.10233208 394.04464505 30.84712454 391.26601013 76.5625 372.625 C96.95527579 364.00599437 115.19542892 352.29290595 131.40234375 337.1953125 C133.09659563 335.62788562 134.81449061 334.17760793 136.625 332.75 C140.29624127 329.56825756 143.30470732 326.01543694 146.4375 322.3125 C147.27539062 321.36246094 148.11328125 320.41242188 148.9765625 319.43359375 C183.12885704 280.48435434 197.0024795 230.46717585 194.4375 179.3125 C193.44891104 166.40923041 191.14646395 153.7117686 187.4375 141.3125 C187.20047363 140.51521484 186.96344727 139.71792969 186.71923828 138.89648438 C177.80646059 109.46697362 163.07692271 84.0001538 141.84960938 61.79199219 C140.9131544 60.8108516 139.98207769 59.82454753 139.05664062 58.83300781 C112.88036734 30.82919499 75.93082844 12.35013541 38.4375 5.3125 C37.26888428 5.08820312 37.26888428 5.08820312 36.07666016 4.859375 C12.42979403 0.50966405 -13.00198565 0.51235545 -36.5625 5.3125 Z " fill="#1C4A5C" transform="translate(206.5625,11.6875)"/>
<path d="M0 0 C0.9472998 0.18804199 1.89459961 0.37608398 2.87060547 0.56982422 C35.22879946 7.25856782 65.74667892 21.65222257 91 43 C91.55075195 43.46196777 92.10150391 43.92393555 92.66894531 44.39990234 C103.20810036 53.2508567 112.41986237 62.1870606 121 73 C122.22783203 74.51980469 122.22783203 74.51980469 123.48046875 76.0703125 C129.77272089 83.9548747 135.0391972 92.22599194 140 101 C140.34272949 101.59506348 140.68545898 102.19012695 141.03857422 102.80322266 C154.32848132 125.97944648 162.73726628 152.34632783 165 179 C165.10828125 179.98097656 165.2165625 180.96195313 165.328125 181.97265625 C170.74221086 237.1820844 154.737228 290.96079298 120 334 C117.11020714 337.44634556 114.1020848 340.74374532 111 344 C110.46246094 344.56477051 109.92492187 345.12954102 109.37109375 345.71142578 C81.01801012 375.30300949 45.83082017 395.34008191 6 405 C4.74413086 405.31759277 4.74413086 405.31759277 3.46289062 405.64160156 C-11.16434278 409.18878999 -25.77997339 409.39122054 -40.75 409.4375 C-42.17542114 409.44689606 -42.17542114 409.44689606 -43.62963867 409.45648193 C-60.90204896 409.52839442 -77.72651816 407.85344138 -94.4375 403.3125 C-95.38794189 403.05758789 -96.33838379 402.80267578 -97.31762695 402.54003906 C-136.48139097 391.68121654 -175.34021836 369.08933969 -201 337 C-201.80308594 336.03449219 -202.60617188 335.06898438 -203.43359375 334.07421875 C-223.06098874 310.15299842 -237.0487782 282.18514259 -244.1875 252.125 C-244.56334229 250.54730835 -244.56334229 250.54730835 -244.94677734 248.93774414 C-248.4414851 233.52861467 -249.3784585 218.54766791 -249.3125 202.8125 C-249.31067719 201.90891754 -249.30885437 201.00533508 -249.30697632 200.07437134 C-249.26203423 186.84104764 -248.85816303 173.96863344 -246 161 C-245.83371094 160.20045898 -245.66742188 159.40091797 -245.49609375 158.57714844 C-239.86560484 131.97830173 -229.21612872 105.9413497 -213 84 C-212.23300781 82.95070313 -211.46601563 81.90140625 -210.67578125 80.8203125 C-205.35613486 73.66335428 -199.62131355 66.96963774 -193.45947266 60.52685547 C-192.47491573 59.49684225 -191.4955186 58.46187541 -190.52099609 57.42236328 C-173.35087825 39.15238023 -152.46292829 25.47406766 -129.83349609 14.86132812 C-128.13766162 14.0646698 -126.45302807 13.24428457 -124.76953125 12.421875 C-87.4595413 -4.84706066 -40.13735103 -8.08060294 0 0 Z M-81 2 C-81.86979492 2.17160645 -82.73958984 2.34321289 -83.63574219 2.52001953 C-120.99948391 10.16912802 -154.72846694 27.37972883 -182.4609375 53.6171875 C-184.48349843 55.51528314 -186.52392201 57.27111348 -188.6875 59 C-192.54153317 62.25679801 -195.56350067 66.16525717 -198.69140625 70.10546875 C-200.14446207 71.92732046 -201.62781474 73.72580397 -203.15234375 75.48828125 C-232.80995003 109.97262272 -247.49927421 156.76121483 -247.375 201.8125 C-247.37445618 202.56468811 -247.37391235 203.31687622 -247.37335205 204.09185791 C-247.19118093 259.45876343 -224.49253702 309.6911449 -186 349 C-147.31582076 386.8611116 -94.37968246 407.51534875 -40.5 407.375 C-39.6706192 407.37412384 -38.8412384 407.37324768 -37.98672485 407.37234497 C-23.98961022 407.32382142 -10.65169051 406.27451294 3 403 C3.99676758 402.76925781 4.99353516 402.53851563 6.02050781 402.30078125 C40.61117402 394.095402 75.48867892 376.75934849 100.2734375 350.76171875 C101.95653258 349.04435251 103.70566302 347.52555109 105.5625 346 C140.47429291 316.72812786 159.0492748 265.50628592 163.33984375 221.515625 C167.44567063 170.89584149 153.67397982 120.58172534 123 80 C122.34386719 79.12988281 121.68773437 78.25976562 121.01171875 77.36328125 C104.78974274 56.50645495 84.9368766 39.12253998 62 26 C60.865625 25.34515625 59.73125 24.6903125 58.5625 24.015625 C27.86108666 6.73403817 -6.76691677 -1.22047339 -41.8125 -1.25 C-42.53787964 -1.25067474 -43.26325928 -1.25134949 -44.01062012 -1.25204468 C-56.53983381 -1.23363859 -68.68113641 -0.43291622 -81 2 Z " fill="#1C4A5C" transform="translate(249,3)"/>
<path d="M0 0 C0.78137329 0.34766922 1.56274658 0.69533844 2.36779785 1.05354309 C4.9429594 2.20306052 7.50829452 3.37299558 10.07421875 4.54296875 C11.89670783 5.36071096 13.71988267 6.17692635 15.54370117 6.99169922 C19.36161067 8.69919866 23.17608222 10.41406811 26.98828125 12.13427734 C35.26510142 15.86375569 43.57706432 19.51328001 51.88586426 23.17077637 C56.34172106 25.13436399 60.79381449 27.1064423 65.24609375 29.078125 C71.42053412 31.81220114 77.59757589 34.54020885 83.77864075 37.25927734 C87.16200258 38.74841541 90.54373625 40.24122494 93.92514038 41.73480225 C95.51200417 42.43472357 97.09957987 43.13303327 98.68789673 43.82965088 C100.86153883 44.78323635 103.03259901 45.74247248 105.203125 46.703125 C106.16384918 47.12204262 106.16384918 47.12204262 107.14398193 47.54942322 C109.7847124 48.72429899 111.69771153 49.66646153 113.76171875 51.73046875 C114.4953432 57.41605827 114.4953432 57.41605827 113.76171875 59.73046875 C112.77389404 60.21741211 111.78606934 60.70435547 110.76831055 61.20605469 C107.6484177 63.33474144 107.6484177 63.33474144 107.19363403 65.8631897 C106.98220743 68.65485922 106.95672357 71.39191307 107 74.19140625 C106.99663132 75.21473053 106.99326263 76.23805481 106.98979187 77.29238892 C106.99009072 79.45604478 107.00533988 81.61974272 107.03442383 83.78320312 C107.07400065 87.08726083 107.05516421 90.38728514 107.02929688 93.69140625 C107.03685867 95.79558844 107.04781483 97.89976172 107.0625 100.00390625 C107.0555159 100.98845795 107.0485318 101.97300964 107.04133606 102.98739624 C107.17286172 109.41258701 108.18280543 112.20787717 112.76171875 116.73046875 C114.61924694 121.34614485 115.19898488 125.34150574 113.69921875 130.10546875 C111.08532072 133.64687898 109.11799212 136.27206648 104.61328125 137.1484375 C100.18023704 137.42090035 98.33597979 137.18509207 94.76171875 134.35546875 C90.98604103 129.39989175 91.10908338 124.82745705 91.76171875 118.73046875 C92.95380347 115.9236511 94.59594723 113.89624027 96.76171875 111.73046875 C96.85450205 110.3488676 96.87918918 108.96258837 96.87524414 107.57788086 C96.87516861 106.6970433 96.87509308 105.81620575 96.87501526 104.90867615 C96.86985397 103.95139114 96.86469269 102.99410614 96.859375 102.0078125 C96.85796005 101.03260147 96.8565451 100.05739044 96.85508728 99.05262756 C96.84947008 95.92437732 96.83691468 92.79619752 96.82421875 89.66796875 C96.81920597 87.55273541 96.81464268 85.43750094 96.81054688 83.32226562 C96.79949506 78.12497579 96.78274021 72.9277273 96.76171875 67.73046875 C95.18596069 68.46197144 95.18596069 68.46197144 93.57836914 69.20825195 C75.55493405 77.5708017 57.53635213 85.92693341 39.3203125 93.86328125 C29.93627035 97.95241694 20.59235372 102.13263527 11.24160767 106.29718018 C9.70289681 106.98241293 8.16410602 107.66746621 6.62522888 108.35232544 C5.21842709 108.97841166 3.81180675 109.60490582 2.40541077 110.23190308 C1.13564012 110.79697093 -0.13617275 111.35747735 -1.41021729 111.9128418 C-2.63935794 112.462592 -3.85632205 113.04032778 -5.05999756 113.64379883 C-9.25085361 115.66973068 -11.77249161 116.0141648 -16.23828125 114.73046875 C-18.23478394 113.96831835 -20.2048567 113.13456992 -22.1484375 112.24609375 C-23.85664673 111.47217285 -23.85664673 111.47217285 -25.59936523 110.68261719 C-26.83319116 110.11527915 -28.06699588 109.54789499 -29.30078125 108.98046875 C-30.60130022 108.38889235 -31.90216986 107.79808632 -33.20336914 107.20800781 C-35.89769842 105.98541982 -38.5905026 104.75956287 -41.28222656 103.53125 C-47.23358684 100.81835861 -53.20534464 98.15104425 -59.17578125 95.48046875 C-61.57299152 94.40641659 -63.97012525 93.33219485 -66.3671875 92.2578125 C-66.9844017 91.98126328 -67.60161591 91.70471405 -68.23753357 91.41978455 C-71.77317212 89.83558799 -75.30842095 88.25052671 -78.84326172 86.66455078 C-82.93918096 84.82687979 -87.03562409 82.99038119 -91.13244629 81.15472412 C-92.77914365 80.41677716 -94.42571061 79.67853915 -96.07214355 78.94000244 C-103.91584802 75.42242839 -111.76185123 71.91573475 -119.6640625 68.53125 C-120.74059082 68.07000732 -121.81711914 67.60876465 -122.92626953 67.13354492 C-124.85794287 66.31046907 -126.79232869 65.49371575 -128.72998047 64.68481445 C-129.56158691 64.3312085 -130.39319336 63.97760254 -131.25 63.61328125 C-131.95600342 63.31824707 -132.66200684 63.02321289 -133.3894043 62.71923828 C-135.59517331 61.53960478 -136.85616753 60.84722973 -138.23828125 58.73046875 C-138.36572266 55.29174805 -138.36572266 55.29174805 -137.23828125 51.73046875 C-134.79448552 49.97037512 -132.91224096 48.90581422 -130.19921875 47.75 C-129.48019379 47.41837357 -128.76116882 47.08674713 -128.02035522 46.74507141 C-125.77028067 45.71449742 -123.50597579 44.72155947 -121.23828125 43.73046875 C-119.89900106 43.12392605 -118.56074242 42.51512142 -117.22363281 41.90380859 C-113.84318545 40.36723446 -110.44835725 38.86576719 -107.04733276 37.37536621 C-103.15259381 35.66807444 -99.26402758 33.94681513 -95.375 32.2265625 C-94.55759842 31.86527252 -93.74019684 31.50398254 -92.89802551 31.13174438 C-84.03347774 27.2078848 -75.20355546 23.20821375 -66.37512207 19.20391846 C-63.69077484 17.98726445 -61.00526375 16.77321884 -58.31933594 15.56005859 C-47.56220152 10.70048955 -47.56220152 10.70048955 -36.83589172 5.77340698 C-34.92543728 4.88992523 -33.01229957 4.01259163 -31.09790039 3.13769531 C-28.8610351 2.11399994 -26.62923147 1.07912908 -24.40405273 0.03027344 C-23.42895752 -0.4128418 -22.4538623 -0.85595703 -21.44921875 -1.3125 C-20.62728027 -1.6943042 -19.8053418 -2.0761084 -18.95849609 -2.46948242 C-11.78486851 -4.57933502 -6.51442649 -3.02072901 0 0 Z M-21.01953125 1.66796875 C-21.6919838 1.97922195 -22.36443634 2.29047516 -23.05726624 2.61116028 C-24.51803478 3.28806478 -25.97725294 3.96832277 -27.43508911 4.65151978 C-31.40250934 6.51008985 -35.38176565 8.34305267 -39.359375 10.1796875 C-40.18219467 10.56041916 -41.00501434 10.94115082 -41.85276794 11.3334198 C-50.1302411 15.1576364 -58.46072205 18.85778292 -66.80078125 22.54296875 C-79.61543319 28.21462951 -92.40584128 33.93836484 -105.17599487 39.70956421 C-107.03212221 40.54836949 -108.88850143 41.38661766 -110.74514771 42.22427368 C-113.34260638 43.39647726 -115.93904025 44.57092002 -118.53515625 45.74609375 C-119.29821579 46.09022812 -120.06127533 46.43436249 -120.84745789 46.78892517 C-122.98334306 47.75775784 -125.11148016 48.74187875 -127.23828125 49.73046875 C-127.99161743 50.07074097 -128.74495361 50.41101318 -129.52111816 50.76159668 C-130.24665894 51.1016272 -130.97219971 51.44165771 -131.71972656 51.79199219 C-132.3720929 52.09248474 -133.02445923 52.39297729 -133.69659424 52.70257568 C-135.57913873 53.72986692 -135.57913873 53.72986692 -136.23828125 56.73046875 C-133.15977785 60.07042727 -129.57106174 61.54273682 -125.453125 63.29296875 C-124.66162552 63.63652908 -123.87012604 63.98008942 -123.05464172 64.33406067 C-121.33470615 65.08004843 -119.61343053 65.82295243 -117.89099121 66.56314087 C-113.23309927 68.56567003 -108.58574536 70.59239131 -103.9375 72.6171875 C-102.97296906 73.03675217 -102.00843811 73.45631683 -101.01467896 73.88859558 C-90.79490189 78.3424573 -80.63815466 82.93251303 -70.48828125 87.54296875 C-68.72935482 88.34120178 -66.97040318 89.13937927 -65.21142578 89.9375 C-62.64823039 91.10064914 -60.08508227 92.26390132 -57.52215576 93.42764282 C-49.54140986 97.05028111 -41.54871383 100.64596078 -33.55078125 104.23046875 C-32.38772461 104.75229736 -31.22466797 105.27412598 -30.02636719 105.81176758 C-27.96471362 106.73515827 -25.90096089 107.65388657 -23.83447266 108.56640625 C-22.25668635 109.27384326 -20.68799034 110.00273545 -19.13818359 110.76953125 C-14.97111222 112.78333227 -12.7001222 112.78004272 -8.23828125 111.73046875 C-5.48759467 110.73407786 -2.82917414 109.55927823 -0.16015625 108.36328125 C0.62750626 108.01670975 1.41516876 107.67013824 2.22669983 107.31306458 C4.82482321 106.16744296 7.41829655 105.01168888 10.01171875 103.85546875 C11.83470336 103.04851135 13.65786722 102.24195877 15.48120117 101.43579102 C31.23412121 94.45817212 46.93726907 87.36847501 62.62283325 80.24090576 C64.23365957 79.50927068 65.84487863 78.77849961 67.45651245 78.04864502 C71.7437091 76.10655308 76.02306752 74.14905612 80.29443359 72.17236328 C82.11032098 71.33880056 83.92623811 70.50530264 85.7421875 69.671875 C86.58662918 69.27709457 87.43107086 68.88231415 88.30110168 68.47557068 C89.08885483 68.11568558 89.87660797 67.75580048 90.68823242 67.38500977 C91.37986984 67.0648439 92.07150726 66.74467804 92.78410339 66.41481018 C94.76171875 65.73046875 94.76171875 65.73046875 98.76171875 65.73046875 C98.88900915 72.27729415 98.97627466 78.82379777 99.03637695 85.37158203 C99.06144482 87.59663824 99.09550819 89.82161273 99.13891602 92.04638672 C99.19990684 95.2537864 99.22800659 98.46009282 99.25 101.66796875 C99.28870964 103.14813477 99.28870964 103.14813477 99.32820129 104.65820312 C99.33058485 110.59332934 98.49791246 114.23661815 94.88713074 119.00927734 C92.97530452 121.93320111 93.25628219 124.38195152 93.76171875 127.73046875 C95.4131118 131.26916815 96.47777104 132.54117028 99.76171875 134.73046875 C102.67664425 135.31428835 102.67664425 135.31428835 105.76171875 134.73046875 C109.57095949 131.51377657 111.5945686 129.46883031 112.07421875 124.48046875 C111.70741811 120.07886109 110.4300289 118.183576 107.76171875 114.73046875 C105.61562751 111.51133189 105.49784332 110.58140051 105.43945312 106.86352539 C105.42023804 105.87562515 105.40102295 104.88772491 105.38122559 103.86988831 C105.37272583 102.80423141 105.36422607 101.73857452 105.35546875 100.640625 C105.3440686 99.54455429 105.33266846 98.44848358 105.32092285 97.31919861 C105.30202479 95.00002912 105.28895563 92.68080595 105.28125 90.36157227 C105.26181066 86.80976158 105.19976048 83.26025282 105.13671875 79.70898438 C105.12366107 77.45704502 105.11315919 75.20508909 105.10546875 72.953125 C105.08077515 71.88949234 105.05608154 70.82585968 105.03063965 69.72999573 C105.0743163 62.51832765 105.0743163 62.51832765 107.1418457 60.14865112 C108.80273438 59.02905273 108.80273438 59.02905273 111.76171875 57.73046875 C111.68133672 55.31966462 111.68133672 55.31966462 110.76171875 52.73046875 C108.38687331 50.97275986 108.38687331 50.97275986 105.359375 49.7109375 C104.26512207 49.20481934 103.17086914 48.69870117 102.04345703 48.17724609 C100.9604834 47.69980957 99.87750977 47.22237305 98.76171875 46.73046875 C97.89144043 46.33424316 97.02116211 45.93801758 96.12451172 45.52978516 C93.4928514 44.34313997 90.84820833 43.19038835 88.19921875 42.04296875 C85.99975966 41.08258149 83.80056179 40.12159585 81.6015625 39.16015625 C81.00101044 38.89796799 80.40045837 38.63577972 79.78170776 38.36564636 C71.84443917 34.89818999 63.92666326 31.38658144 56.00592041 27.8815918 C53.2556273 26.6652748 50.50465518 25.45050799 47.75341797 24.23632812 C45.8902972 23.41406767 44.02717872 22.59180201 42.1640625 21.76953125 C41.23319824 21.358703 40.30233398 20.94787476 39.34326172 20.52459717 C33.53571404 17.95995475 27.73296986 15.38475495 21.93338013 12.8021698 C18.14106092 11.11476644 14.34616967 9.4332028 10.55078125 7.75271606 C8.74215118 6.95024579 6.93468097 6.14515597 5.12841797 5.33737183 C2.6250031 4.21816416 0.11773153 3.10807839 -2.390625 2 C-3.13025986 1.66660614 -3.86989471 1.33321228 -4.63194275 0.98971558 C-11.16013441 -1.8738749 -14.79787895 -1.28368522 -21.01953125 1.66796875 Z " fill="#1C4A5C" transform="translate(219.23828125,62.26953125)"/>
<path d="M0 0 C3.3125 1.875 3.3125 1.875 6 4 C6.61875 4.433125 7.2375 4.86625 7.875 5.3125 C9.87078437 8.30617656 9.47689316 10.4944794 9 14 C6.94366312 16.82334671 4.39335759 18.984647 1.75 21.25 C0.6528064 22.23214478 0.6528064 22.23214478 -0.46655273 23.23413086 C-1.94659579 24.55751108 -3.43345632 25.87330879 -4.92724609 27.18115234 C-7.68119005 29.59774627 -10.37067499 32.07688867 -13.0625 34.5625 C-14.01511719 35.43003906 -14.96773438 36.29757812 -15.94921875 37.19140625 C-18.18459797 39.23675982 -20.3883088 41.31239026 -22.58203125 43.40234375 C-30.70264266 51.1187142 -39.05689356 58.25386497 -48 65 C-48.74894531 65.59425781 -49.49789063 66.18851562 -50.26953125 66.80078125 C-52 68 -52 68 -54 68 C-54.19916016 66.66195312 -54.19916016 66.66195312 -54.40234375 65.296875 C-54.57894531 64.12640625 -54.75554687 62.9559375 -54.9375 61.75 C-55.11152344 60.58984375 -55.28554688 59.4296875 -55.46484375 58.234375 C-55.84074215 55.12919041 -55.84074215 55.12919041 -56.91015625 52.9375 C-57 51 -57 51 -54.71875 48.265625 C-53.65700842 47.24862019 -52.58327342 46.24403856 -51.5 45.25 C-50.37459135 44.17235664 -49.25088441 43.09293328 -48.12890625 42.01171875 C-47.58379395 41.4914209 -47.03868164 40.97112305 -46.47705078 40.43505859 C-43.43312549 37.47767134 -40.72840303 34.24505807 -38 31 C-37.14664062 30.00097656 -36.29328125 29.00195312 -35.4140625 27.97265625 C-31.10601269 22.92109273 -26.85034292 17.84796108 -22.75 12.625 C-10.47090205 -2.82452078 -10.47090205 -2.82452078 0 0 Z " fill="#588881" transform="translate(337,234)"/>
<path d="M0 0 C4.66893132 0.52975881 8.54276594 1.41802293 12.83984375 3.30859375 C14.52980469 4.04577637 14.52980469 4.04577637 16.25390625 4.79785156 C17.48183076 5.34426639 18.70969351 5.89082004 19.9375 6.4375 C21.22888831 7.00421546 22.52056291 7.57027892 23.8125 8.13574219 C31.78974614 11.63916764 39.72716681 15.22975654 47.66015625 18.83203125 C48.55999741 19.23985336 49.45983856 19.64767548 50.38694763 20.06785583 C54.85238773 22.09182304 59.31413813 24.12315153 63.76928711 26.16967773 C65.41899248 26.92066413 67.06880831 27.67140795 68.71875 28.421875 C69.4675795 28.76922195 70.216409 29.11656891 70.9879303 29.47444153 C78.18262825 32.77690641 78.18262825 32.77690641 85.8762207 32.11401367 C86.88257568 31.63681885 87.88893066 31.15962402 88.92578125 30.66796875 C90.0955249 30.12487061 91.26526855 29.58177246 92.47045898 29.0222168 C93.09443573 28.72407074 93.71841248 28.42592468 94.36129761 28.1187439 C97.04570553 26.83756543 99.7468234 25.59354813 102.44721985 24.34651184 C103.91438896 23.66851962 105.38074888 22.988774 106.84635925 22.30741882 C115.58959514 18.24513767 124.385905 14.30387097 133.20175171 10.40200806 C135.90133833 9.20355361 138.59478099 7.99197891 141.28833008 6.7800293 C142.97182573 6.03357011 144.65564878 5.28784875 146.33984375 4.54296875 C147.09705719 4.19878906 147.85427063 3.85460937 148.63442993 3.5 C153.47854916 1.38051606 157.72373861 0.4249463 163 0 C163.04629419 7.3973076 163.08185426 14.79458407 163.10362434 22.19200706 C163.1140717 25.62675459 163.12824805 29.06140317 163.15087891 32.49609375 C163.17672063 36.44269638 163.18646493 40.38925863 163.1953125 44.3359375 C163.20563507 45.57242035 163.21595764 46.8089032 163.22659302 48.08285522 C163.22674408 49.22388702 163.22689514 50.36491882 163.22705078 51.54052734 C163.231492 52.548685 163.23593323 53.55684265 163.24050903 54.59555054 C163 57 163 57 161 59 C159.14331055 59.43896484 159.14331055 59.43896484 156.88671875 59.7109375 C155.64317627 59.87275513 155.64317627 59.87275513 154.37451172 60.0378418 C153.48779785 60.149104 152.60108398 60.26036621 151.6875 60.375 C129.4685226 63.48534206 110.40744571 72.93530714 91.80078125 85.08984375 C90.35251953 86.03537109 90.35251953 86.03537109 88.875 87 C88.04742187 87.556875 87.21984375 88.11375 86.3671875 88.6875 C82.13883013 91.03193577 82.13883013 91.03193577 79 91 C76.14908081 89.48881347 73.67318646 87.53130386 71.125 85.5625 C60.22526534 77.53984673 49.15214798 71.71961259 36.625 66.625 C35.80475342 66.29081055 34.98450684 65.95662109 34.1394043 65.61230469 C25.89555265 62.37248684 17.78413497 60.82830734 9 59.9375 C1.1320688 59.1320688 1.1320688 59.1320688 0 58 C-0.09376053 56.18944975 -0.1174411 54.37522799 -0.11352539 52.56225586 C-0.11344986 51.40112778 -0.11337433 50.23999969 -0.11329651 49.04368591 C-0.10813522 47.780168 -0.10297394 46.51665009 -0.09765625 45.21484375 C-0.0962413 43.92888809 -0.09482635 42.64293243 -0.09336853 41.31800842 C-0.08954418 37.89356557 -0.07971462 34.46916491 -0.06866455 31.04473877 C-0.05844864 27.55261811 -0.05387053 24.06049066 -0.04882812 20.56835938 C-0.03809227 13.71222222 -0.02101684 6.85611313 0 0 Z M2 2 C1.97473395 9.67211202 1.95716877 17.3442134 1.94506836 25.01635742 C1.94002623 27.62866619 1.93319275 30.24097211 1.92456055 32.85327148 C1.91248964 36.59880268 1.90677065 40.34429672 1.90234375 44.08984375 C1.89718246 45.26586655 1.89202118 46.44188934 1.88670349 47.65354919 C1.88662796 48.73459427 1.88655243 49.81563934 1.88647461 50.92944336 C1.884254 51.88652695 1.88203339 52.84361053 1.87974548 53.82969666 C1.75687501 55.97917624 1.75687501 55.97917624 3 57 C4.40804979 57.21359113 5.82446684 57.37255902 7.2421875 57.5078125 C32.20472349 60.18446383 57.85535089 69.95285229 76.89453125 86.77734375 C78.92244196 88.18990814 78.92244196 88.18990814 81.27734375 88.00390625 C85.17137605 86.56808659 88.33780826 84.33476042 91.75 82 C104.48148928 73.55103381 117.36172528 66.53858272 132 62 C132.9075 61.70480469 133.815 61.40960938 134.75 61.10546875 C140.99481511 59.21901419 147.21921965 58.35273232 153.69482422 57.73364258 C157.78899388 57.40093475 157.78899388 57.40093475 161 55 C161.29619151 52.02377364 161.29619151 52.02377364 161.23046875 48.5078125 C161.23032524 47.52649857 161.23032524 47.52649857 161.23017883 46.52536011 C161.22644831 44.3917221 161.20751536 42.25854257 161.1875 40.125 C161.18065642 38.66797028 161.17414675 37.21093895 161.16796875 35.75390625 C161.10162418 24.81757609 160.73452266 13.91290811 160 3 C155.03272963 3.69821069 150.69774347 5.66419576 146.125 7.625 C144.98804688 8.10259766 144.98804688 8.10259766 143.828125 8.58984375 C138.82651462 10.71347832 133.89378883 12.97003069 128.9765625 15.28125 C121.20495481 18.93303354 113.36643523 22.42416163 105.50683594 25.88183594 C103.20928162 26.89291891 100.91318103 27.90725344 98.6171875 28.921875 C97.14591688 29.57050204 95.67456585 30.21894672 94.203125 30.8671875 C93.52195618 31.16817352 92.84078735 31.46915955 92.13897705 31.77926636 C85.98987852 34.48033544 81.03906688 36.46658954 74.51220703 34.09667969 C71.49550048 32.75200504 68.52853671 31.32806182 65.5625 29.875 C63.24362255 28.77171833 60.92323715 27.67160195 58.6015625 26.57421875 C57.99390549 26.2856752 57.38624847 25.99713165 56.76017761 25.69984436 C49.38643464 22.21047049 41.91438087 18.94831924 34.4375 15.6875 C33.14329327 15.12031937 31.84910345 14.55310015 30.55493164 13.98583984 C21.0932725 9.85143739 11.55983226 5.90138746 2 2 Z " fill="#1B495B" transform="translate(126,155)"/>
<path d="M0 0 C0.75539063 -0.00515625 1.51078125 -0.0103125 2.2890625 -0.015625 C4.375 0.25 4.375 0.25 7.375 2.25 C6.72895496 11.20552087 1.21200652 16.02013219 -4.625 22.25 C-5.37894043 23.0637207 -6.13288086 23.87744141 -6.90966797 24.71582031 C-9.39453482 27.37666365 -11.91000715 30.00465254 -14.4375 32.625 C-15.24944824 33.48834961 -16.06139648 34.35169922 -16.89794922 35.24121094 C-17.68057129 36.0355957 -18.46319336 36.82998047 -19.26953125 37.6484375 C-19.96409424 38.36692871 -20.65865723 39.08541992 -21.37426758 39.82568359 C-23.625 41.25 -23.625 41.25 -26.66918945 41.04956055 C-30.18795864 40.09771706 -33.57878464 38.94624905 -37 37.6875 C-37.96099609 37.33655273 -37.96099609 37.33655273 -38.94140625 36.97851562 C-40.5043161 36.40700381 -42.06490727 35.82915771 -43.625 35.25 C-43.625 34.26 -43.625 33.27 -43.625 32.25 C-41.51953125 30.7265625 -41.51953125 30.7265625 -38.4375 28.875 C-30.16849512 23.61171655 -23.60791524 16.47464112 -16.87426758 9.43798828 C-16.00825928 8.54192871 -15.14225098 7.64586914 -14.25 6.72265625 C-13.09371094 5.50461304 -13.09371094 5.50461304 -11.9140625 4.26196289 C-8.25713858 1.04772334 -4.81541204 -0.03309562 0 0 Z " fill="#588880" transform="translate(301.625,239.75)"/>
<path d="M0 0 C3.3125 1.875 3.3125 1.875 6 4 C6.61875 4.433125 7.2375 4.86625 7.875 5.3125 C9.87078437 8.30617656 9.47689316 10.4944794 9 14 C6.94366312 16.82334671 4.39335759 18.984647 1.75 21.25 C0.6528064 22.23214478 0.6528064 22.23214478 -0.46655273 23.23413086 C-1.94659579 24.55751108 -3.43345632 25.87330879 -4.92724609 27.18115234 C-7.68119005 29.59774627 -10.37067499 32.07688867 -13.0625 34.5625 C-14.01511719 35.43003906 -14.96773438 36.29757812 -15.94921875 37.19140625 C-18.18459797 39.23675982 -20.3883088 41.31239026 -22.58203125 43.40234375 C-30.70264266 51.1187142 -39.05689356 58.25386497 -48 65 C-48.74894531 65.59425781 -49.49789063 66.18851562 -50.26953125 66.80078125 C-52 68 -52 68 -54 68 C-54.19916016 66.66195312 -54.19916016 66.66195312 -54.40234375 65.296875 C-54.57894531 64.12640625 -54.75554687 62.9559375 -54.9375 61.75 C-55.11152344 60.58984375 -55.28554688 59.4296875 -55.46484375 58.234375 C-55.84074215 55.12919041 -55.84074215 55.12919041 -56.91015625 52.9375 C-57 51 -57 51 -54.71875 48.265625 C-53.65700842 47.24862019 -52.58327342 46.24403856 -51.5 45.25 C-50.37459135 44.17235664 -49.25088441 43.09293328 -48.12890625 42.01171875 C-47.58379395 41.4914209 -47.03868164 40.97112305 -46.47705078 40.43505859 C-43.43312549 37.47767134 -40.72840303 34.24505807 -38 31 C-37.14664062 30.00097656 -36.29328125 29.00195312 -35.4140625 27.97265625 C-31.10601269 22.92109273 -26.85034292 17.84796108 -22.75 12.625 C-10.47090205 -2.82452078 -10.47090205 -2.82452078 0 0 Z M-18.4296875 10.98828125 C-19.8049064 12.73657431 -21.1679597 14.49337986 -22.52368164 16.25683594 C-29.93530923 25.88454394 -37.81821615 35.27969467 -46.70703125 43.58203125 C-48.22459552 44.92648218 -48.22459552 44.92648218 -48 47 C-48.66 47 -49.32 47 -50 47 C-52.3323974 48.5398964 -52.3323974 48.5398964 -54 51 C-53.83183949 54.09423751 -53.83183949 54.09423751 -52.75 57.25 C-52.43546875 58.32765625 -52.1209375 59.4053125 -51.796875 60.515625 C-51.53390625 61.33546875 -51.2709375 62.1553125 -51 63 C-45.81625214 60.26104621 -41.76862901 57.24912396 -37.5625 53.1875 C-36.50240896 52.17982385 -35.44119587 51.17332689 -34.37890625 50.16796875 C-33.83613037 49.65322998 -33.29335449 49.13849121 -32.73413086 48.6081543 C-30.88885918 46.89693305 -29.00270246 45.24261481 -27.1015625 43.59375 C-22.89983489 39.94166845 -18.85033551 36.14400216 -14.8125 32.3125 C-7.59152707 25.48661734 -0.31889995 18.72065943 7 12 C6.20019464 7.36902821 3.68945106 5.78591202 0 3 C-8.32319732 -1.16159866 -13.56496599 5.00514306 -18.4296875 10.98828125 Z " fill="#1C4A5C" transform="translate(337,234)"/>
<path d="M0 0 C0.75539063 -0.00515625 1.51078125 -0.0103125 2.2890625 -0.015625 C4.375 0.25 4.375 0.25 7.375 2.25 C6.72895496 11.20552087 1.21200652 16.02013219 -4.625 22.25 C-5.37894043 23.0637207 -6.13288086 23.87744141 -6.90966797 24.71582031 C-9.39453482 27.37666365 -11.91000715 30.00465254 -14.4375 32.625 C-15.24944824 33.48834961 -16.06139648 34.35169922 -16.89794922 35.24121094 C-17.68057129 36.0355957 -18.46319336 36.82998047 -19.26953125 37.6484375 C-19.96409424 38.36692871 -20.65865723 39.08541992 -21.37426758 39.82568359 C-23.625 41.25 -23.625 41.25 -26.66918945 41.04956055 C-30.18795864 40.09771706 -33.57878464 38.94624905 -37 37.6875 C-37.96099609 37.33655273 -37.96099609 37.33655273 -38.94140625 36.97851562 C-40.5043161 36.40700381 -42.06490727 35.82915771 -43.625 35.25 C-43.625 34.26 -43.625 33.27 -43.625 32.25 C-41.51953125 30.7265625 -41.51953125 30.7265625 -38.4375 28.875 C-30.16849512 23.61171655 -23.60791524 16.47464112 -16.87426758 9.43798828 C-16.00825928 8.54192871 -15.14225098 7.64586914 -14.25 6.72265625 C-13.09371094 5.50461304 -13.09371094 5.50461304 -11.9140625 4.26196289 C-8.25713858 1.04772334 -4.81541204 -0.03309562 0 0 Z M-13.625 9.25 C-15.36323481 11.17708007 -17.0568734 13.13866867 -18.75 15.10546875 C-24.18407827 21.32069577 -29.77592925 26.3085837 -36.71875 30.8046875 C-37.3478125 31.28164063 -37.976875 31.75859375 -38.625 32.25 C-38.625 32.91 -38.625 33.57 -38.625 34.25 C-36.88031628 34.95088156 -35.12898839 35.63524009 -33.375 36.3125 C-31.91320312 36.88677734 -31.91320312 36.88677734 -30.421875 37.47265625 C-27.45797335 38.29642221 -26.3900707 38.49622905 -23.625 37.25 C-17.97064468 32.92162415 -12.9913174 27.79786228 -8.41796875 22.35546875 C-5.60347329 19.05042942 -2.60964518 15.90845028 0.359375 12.7421875 C2.52691921 10.06216191 3.94339175 7.37598004 5.375 4.25 C-1.75440522 0.31653505 -8.12206426 4.15978444 -13.625 9.25 Z " fill="#1D4B5C" transform="translate(301.625,239.75)"/>
<path d="M0 0 C3.3 0 6.6 0 10 0 C10 0.33 10 0.66 10 1 C6.12315913 2.19287411 3.08378077 3 -1 3 C-0.67 2.01 -0.34 1.02 0 0 Z " fill="#51817C" transform="translate(236,322)"/>
</svg>
