<?xml version="1.0" standalone="no"?>
<!DOCTYPE svg PUBLIC "-//W3C//DTD SVG 20010904//EN"
 "http://www.w3.org/TR/2001/REC-SVG-20010904/DTD/svg10.dtd">
<svg version="1.0" xmlns="http://www.w3.org/2000/svg"
 width="1000.000000pt" height="1000.000000pt" viewBox="0 0 1000.000000 1000.000000"
 preserveAspectRatio="xMidYMid meet">

<g transform="translate(0.000000,1000.000000) scale(0.100000,-0.100000)"
fill="#000000" stroke="none">
<path d="M5286 6084 c-13 -13 -16 -46 -16 -209 0 -163 3 -196 16 -209 18 -18
32 -20 54 -6 11 7 16 33 18 100 l4 90 93 0 93 0 3 -85 c5 -100 21 -127 64
-107 l25 12 0 205 0 205 -25 12 c-42 19 -59 -8 -63 -97 l-4 -75 -93 0 -93 0
-4 80 c-2 58 -7 84 -18 90 -22 14 -36 12 -54 -6z"/>
<path d="M6122 6088 c-9 -9 -12 -70 -12 -215 0 -190 1 -203 19 -213 11 -5 76
-10 144 -10 101 0 127 3 138 16 9 11 10 20 2 32 -8 14 -30 18 -117 20 l-106 3
0 177 c0 182 -4 202 -40 202 -9 0 -21 -5 -28 -12z"/>
<path d="M6856 6078 c-13 -18 -16 -56 -16 -203 0 -147 3 -185 16 -203 18 -26
37 -28 58 -6 13 13 16 46 16 209 0 163 -3 196 -16 209 -21 22 -40 20 -58 -6z"/>
<path d="M7040 6080 c-19 -19 -20 -33 -20 -209 0 -159 3 -192 16 -205 19 -19
38 -20 52 -3 7 8 13 70 14 151 l3 138 90 -133 c102 -151 117 -169 144 -169 47
0 51 19 51 221 0 195 -6 229 -38 229 -37 0 -42 -20 -42 -169 l0 -144 -101 149
c-56 82 -107 152 -113 156 -18 13 -35 9 -56 -12z"/>
<path d="M7605 6091 c-112 -29 -178 -129 -161 -246 16 -123 93 -188 221 -189
72 -1 142 19 178 51 26 24 25 148 -2 163 -33 17 -156 13 -172 -6 -19 -23 13
-44 68 -44 43 0 43 0 43 -36 0 -31 -4 -37 -35 -50 -49 -20 -114 -18 -153 6
-40 24 -62 73 -62 135 0 96 53 155 139 155 38 0 48 -5 88 -45 24 -25 48 -45
53 -45 13 0 40 29 40 43 0 26 -40 75 -75 91 -42 20 -126 29 -170 17z"/>
<path d="M5736 6074 c-13 -13 -16 -46 -16 -204 0 -158 3 -191 16 -204 23 -24
295 -23 315 0 9 11 10 20 2 32 -8 14 -31 18 -127 20 l-116 3 0 64 0 65 94 0
c110 0 126 4 126 35 0 31 -16 35 -126 35 l-94 0 0 50 0 49 111 3 c92 2 114 6
122 20 8 12 7 21 -2 32 -20 23 -282 24 -305 0z"/>
<path d="M6477 6075 c-25 -24 -26 -385 -1 -409 40 -41 74 1 74 91 l0 63 53 0
c128 1 187 42 187 130 0 108 -33 132 -186 138 -94 4 -113 2 -127 -13z m212
-71 c27 -35 26 -59 -4 -89 -20 -21 -34 -25 -80 -25 l-55 0 0 70 0 70 59 0 c52
0 62 -3 80 -26z"/>
<path d="M3855 5963 c-145 -54 -227 -122 -282 -233 -41 -81 -53 -144 -53 -275
0 -93 2 -103 23 -123 27 -25 74 -29 103 -8 16 12 20 31 24 110 5 75 10 101 26
123 44 59 123 50 156 -17 16 -30 18 -67 18 -282 0 -241 1 -248 22 -268 30 -27
73 -26 103 5 24 24 25 28 25 185 0 88 3 160 6 160 3 0 17 -9 31 -20 41 -32 75
-22 102 28 l12 23 26 -21 c14 -11 36 -20 48 -20 22 0 57 32 68 62 6 17 8 17
36 0 28 -15 33 -16 58 -2 32 18 41 44 42 126 2 143 -42 257 -131 340 -64 59
-96 75 -200 105 -81 23 -205 24 -263 2z"/>
<path d="M3178 5584 c-28 -14 -37 -47 -18 -59 5 -3 23 1 39 10 41 21 73 19
105 -6 30 -24 56 -19 56 11 0 49 -120 78 -182 44z"/>
<path d="M3195 5505 c-24 -24 -25 -27 -25 -185 l0 -161 -26 20 c-15 12 -37 21
-50 21 -27 0 -64 -32 -64 -55 0 -20 -5 -19 -40 6 -38 29 -75 19 -102 -27 -19
-32 -22 -34 -38 -19 -18 16 -38 19 -65 9 -67 -26 -59 -221 15 -377 40 -85 158
-170 271 -196 75 -18 229 -13 291 8 79 27 108 44 165 95 92 83 153 243 153
402 0 111 -38 163 -107 145 -40 -11 -53 -44 -53 -137 0 -68 -4 -86 -21 -108
-30 -38 -64 -49 -106 -35 -59 19 -63 38 -63 319 l0 251 -25 24 c-15 16 -36 25
-55 25 -19 0 -40 -9 -55 -25z"/>
<path d="M5286 5374 c-13 -13 -16 -46 -16 -209 0 -163 3 -196 16 -209 18 -18
32 -20 54 -6 11 7 16 33 18 100 l4 90 93 0 93 0 3 -85 c5 -100 21 -127 64
-107 l25 12 0 205 0 205 -25 12 c-42 19 -59 -8 -63 -97 l-4 -75 -93 0 -93 0
-4 80 c-2 58 -7 84 -18 90 -22 14 -36 12 -54 -6z"/>
<path d="M5852 5372 c-19 -19 -162 -365 -162 -393 0 -20 20 -39 43 -39 12 0
26 17 43 55 l25 55 94 0 93 0 7 -30 c8 -35 41 -80 60 -80 24 0 46 30 39 54
-25 80 -149 364 -166 379 -26 22 -53 22 -76 -1z m76 -172 l31 -90 -69 0 -69 0
32 90 c17 50 34 90 38 90 3 0 20 -40 37 -90z"/>
<path d="M6160 5370 c-19 -19 -20 -33 -20 -209 0 -159 3 -192 16 -205 19 -19
38 -20 52 -3 7 8 13 70 14 151 l3 138 90 -133 c102 -151 117 -169 144 -169 47
0 51 19 51 221 0 195 -6 229 -38 229 -37 0 -42 -20 -42 -169 l0 -144 -101 149
c-56 82 -107 152 -113 156 -18 13 -35 9 -56 -12z"/>
<path d="M6606 5364 c-13 -13 -16 -46 -16 -204 0 -158 3 -191 16 -204 18 -19
166 -22 227 -5 50 14 103 61 118 107 19 54 16 170 -5 213 -39 83 -96 109 -238
109 -65 0 -90 -4 -102 -16z m214 -67 c73 -36 81 -213 13 -267 -20 -15 -40 -20
-89 -20 l-64 0 0 150 0 150 58 0 c31 0 68 -6 82 -13z"/>
<path d="M3847 4983 c-31 -30 32 -83 98 -83 49 0 105 32 105 60 0 27 -25 36
-45 16 -9 -9 -27 -19 -41 -22 -26 -7 -84 12 -84 27 0 11 -24 12 -33 2z"/>
<path d="M5655 4653 c-14 -14 -16 -37 -13 -167 4 -168 11 -196 66 -232 69 -47
198 -39 255 14 39 37 47 78 47 234 0 111 -3 140 -16 152 -8 9 -21 16 -28 16
-30 0 -36 -25 -36 -149 0 -191 -19 -231 -108 -231 -32 0 -49 6 -67 25 -24 23
-25 29 -25 167 0 114 -3 148 -16 166 -18 26 -37 28 -59 5z"/>
<path d="M6574 4661 c-136 -35 -193 -192 -123 -339 31 -64 93 -96 184 -96 89
0 145 28 183 94 23 39 27 56 27 125 0 97 -27 153 -90 191 -44 26 -131 38 -181
25z m125 -76 c38 -19 61 -71 61 -140 0 -102 -44 -155 -128 -155 -74 0 -122 61
-122 155 0 67 22 120 59 140 34 19 95 19 130 0z"/>
<path d="M5239 4644 c-24 -29 1 -49 70 -52 l61 -3 0 -169 c0 -140 3 -171 16
-184 21 -22 40 -20 58 6 13 18 16 54 16 185 l0 162 61 3 c69 3 94 23 70 52
-11 13 -40 16 -176 16 -136 0 -165 -3 -176 -16z"/>
<path d="M6059 4644 c-24 -29 1 -49 70 -52 l61 -3 0 -169 c0 -140 3 -171 16
-184 21 -22 40 -20 58 6 13 18 16 54 16 185 l0 162 61 3 c69 3 94 23 70 52
-11 13 -40 16 -176 16 -136 0 -165 -3 -176 -16z"/>
<path d="M6927 4645 c-25 -24 -25 -385 -1 -409 8 -9 21 -16 28 -16 27 0 36 26
36 107 l0 83 38 0 c51 0 72 -17 126 -104 47 -75 68 -92 100 -80 34 13 4 96
-59 158 l-34 35 37 18 c24 12 44 32 56 57 17 36 18 43 5 79 -24 69 -52 81
-193 85 -104 3 -125 1 -139 -13z m237 -67 c22 -31 20 -64 -4 -88 -16 -16 -33
-20 -95 -20 l-75 0 0 65 0 65 79 0 c71 0 82 -2 95 -22z"/>
<path d="M2296 4381 c-25 -27 -17 -64 16 -75 19 -7 31 -6 42 4 23 18 20 67 -3
80 -27 14 -35 13 -55 -9z"/>
<path d="M2455 4370 c-10 -16 3 -60 18 -60 41 1 51 62 10 68 -11 2 -24 -2 -28
-8z"/>
<path d="M2600 4361 c-7 -15 -6 -24 6 -36 31 -31 82 6 55 39 -18 22 -48 20
-61 -3z"/>
<path d="M3345 4198 c-2 -7 -9 -40 -16 -73 -6 -33 -14 -65 -16 -72 -4 -10 55
-13 291 -13 163 0 296 3 296 8 -1 4 -9 41 -19 82 l-18 75 -257 3 c-200 2 -257
0 -261 -10z"/>
</g>
</svg>
